<svg width="136" height="136" viewBox="0 0 136 136" fill="none" xmlns="http://www.w3.org/2000/svg">
<path d="M39.1 94.2C37.5 93.5 35.9 93.1 34.2 93.1C33.3 93.1 32.6 93.2 32 93.3V110.9C40.2 111.1 44.4 108 44.4 101.8C44.4 100 43.9 98.5 42.9 97.2C41.9 95.9 40.6 94.9 39.1 94.2ZM50.6 67.7H17.3C7.7 67.7 0 75.4 0 85V118.3C0 127.9 7.7 135.6 17.3 135.6H50.6C60.2 135.6 67.9 127.9 67.9 118.3V85C67.9 75.4 60.2 67.7 50.6 67.7ZM48.9 117.3C44.4 120.3 38.3 121.9 30.7 121.9C27.7 121.9 24.6 121.7 21.7 121.4L22.1 83.7C23.7 83 25.2 82.5 26.6 82.2C28 81.9 29.5 81.7 31.1 81.7C35.3 81.7 39.2 82.7 43 84.6C46.8 86.5 49.8 89.1 52.2 92.4C54.5 95.7 55.7 99.4 55.7 103.4C55.7 109.7 53.4 114.3 48.9 117.3Z" fill="#F84C5A"/>
<path d="M103.3 95.3C104.3 94.6 104.8 93.8 104.8 92.8C104.8 91.9 104.4 91.1 103.7 90.5C103 89.9 102 89.6 100.8 89.6C99.9 89.6 99.1 89.8 98.4 90.2V96.1C98.8 96.2 99.3 96.3 99.9 96.3C101.2 96.3 102.3 95.9 103.3 95.3ZM105.3 105.9C104.4 105.2 103.3 104.9 102 104.9C100.7 104.9 99.5 105.2 98.4 105.8V112.8C99.1 113.1 99.8 113.2 100.5 113.2C102.2 113.2 103.6 112.8 104.8 111.8C106 110.9 106.6 109.8 106.6 108.5C106.6 107.4 106.2 106.5 105.3 105.9ZM118.1 67.7H84.8C75.2 67.7 67.5 75.4 67.5 85V118.3C67.5 127.9 75.2 135.6 84.8 135.6H118.1C127.7 135.6 135.4 127.9 135.4 118.3V85C135.4 75.4 127.6 67.7 118.1 67.7ZM112.5 118.7C109 120.6 103.5 121.6 96.2 121.6H88.3L88.5 83.8C89.7 83 91.7 82.5 94.2 82.2C96.8 81.9 99.2 81.8 101.6 81.8C103.8 81.8 105.8 82.2 107.8 83C109.8 83.8 111.4 85 112.6 86.4C113.8 87.8 114.5 89.4 114.5 91.1C114.5 93.2 114 95.1 112.9 96.8C111.8 98.5 110.4 99.5 108.6 99.9C108.8 99.9 109.2 99.9 109.7 99.9C111.2 99.9 112.6 100.3 113.8 101.2C115 102.1 116 103.3 116.7 104.8C117.4 106.3 117.8 108.1 117.8 110C117.8 113.8 116 116.8 112.5 118.7Z" fill="#59D6EA"/>
<path d="M82.1 0H48.8C39.2 0 31.5 7.8 31.5 17.3V50.6C31.5 60.2 39.2 67.9 48.8 67.9H82.1C91.7 67.9 99.4 60.2 99.4 50.6V17.3C99.4 7.8 91.6 0 82.1 0ZM46.6 45.5L64.9 13.8L83.2 45.5H46.6Z" fill="#FFBD02"/>
</svg>
