<svg width="299" height="278" viewBox="0 0 299 278" fill="none" xmlns="http://www.w3.org/2000/svg">
<path d="M299.3 0H0V278.1H299.3V0Z" fill="#FFBD02"/>
<path d="M122.4 164.4C120.9 163.7 119.4 163.4 117.9 163.4C117.1 163.4 116.4 163.5 115.9 163.6V180C123.6 180.2 127.4 177.4 127.4 171.6C127.4 170 126.9 168.5 126 167.3C125 166 123.8 165.1 122.4 164.4ZM133.1 139.8H102.1C93.2 139.8 86 147 86 155.9V186.8C86 195.7 93.2 202.9 102.1 202.9H133.1C142 202.9 149.2 195.7 149.2 186.8V155.9C149.2 147 142 139.8 133.1 139.8ZM131.5 185.9C127.3 188.7 121.7 190.1 114.6 190.1C111.8 190.1 109 189.9 106.2 189.6L106.6 154.6C108.1 154 109.5 153.5 110.8 153.2C112.1 152.9 113.5 152.8 115 152.8C118.9 152.8 122.5 153.7 126.1 155.5C129.6 157.3 132.5 159.7 134.6 162.8C136.7 165.9 137.8 169.3 137.8 173.1C137.8 178.8 135.7 183.1 131.5 185.9Z" fill="#F4F4F4"/>
<path d="M182 165.4C182.9 164.8 183.4 164 183.4 163.1C183.4 162.2 183.1 161.5 182.4 161C181.7 160.5 180.8 160.2 179.7 160.2C178.9 160.2 178.1 160.4 177.4 160.7V166.2C177.8 166.3 178.3 166.4 178.8 166.4C180.1 166.4 181.1 166.1 182 165.4ZM183.9 175.3C183.1 174.7 182 174.4 180.8 174.4C179.6 174.4 178.5 174.7 177.5 175.2V181.7C178.1 182 178.8 182.1 179.5 182.1C181.1 182.1 182.4 181.7 183.5 180.8C184.6 180 185.2 178.9 185.2 177.7C185.1 176.7 184.7 175.9 183.9 175.3ZM195.8 139.8H164.9C156 139.8 148.8 147 148.8 155.9V186.8C148.8 195.7 156 202.9 164.9 202.9H195.8C204.7 202.9 211.9 195.7 211.9 186.8V155.9C211.8 147 204.6 139.8 195.8 139.8ZM190.5 187.2C187.2 189 182.2 189.9 175.4 189.9H168.1L168.3 154.8C169.5 154.1 171.2 153.6 173.6 153.3C176 153 178.3 152.9 180.4 152.9C182.4 152.9 184.3 153.3 186.1 154.1C187.9 154.9 189.4 155.9 190.6 157.2C191.7 158.5 192.3 160 192.3 161.6C192.3 163.6 191.8 165.3 190.8 166.9C189.8 168.5 188.5 169.4 186.8 169.7C187 169.7 187.4 169.7 187.8 169.7C189.2 169.7 190.5 170.1 191.6 170.9C192.7 171.7 193.7 172.8 194.3 174.3C195 175.7 195.3 177.3 195.3 179.1C195.5 182.7 193.8 185.4 190.5 187.2Z" fill="#F4F4F4"/>
<path d="M162.3 77H131.3C122.4 77 115.2 84.2 115.2 93.1V124C115.2 132.9 122.4 140.1 131.3 140.1H162.3C171.2 140.1 178.4 132.9 178.4 124V93.1C178.4 84.2 171.2 77 162.3 77ZM129.4 119.2L146.4 89.8L163.4 119.2H129.4Z" fill="#F4F4F4"/>
</svg>
