<svg width="300" height="322" viewBox="0 0 300 322" fill="none" xmlns="http://www.w3.org/2000/svg">
<path d="M300 0H0V322H300V0Z" fill="#59D6EA"/>
<path d="M121.1 187.4C119.5 186.7 117.9 186.3 116.2 186.3C115.3 186.3 114.6 186.4 114 186.5V204.1C122.3 204.3 126.4 201.2 126.4 195C126.4 193.2 125.9 191.7 124.9 190.4C124 189.1 122.7 188.1 121.1 187.4ZM132.7 160.8H99.3C89.7 160.8 82 168.6 82 178.1V211.5C82 221.1 89.8 228.8 99.3 228.8H132.7C142.3 228.8 150 221 150 211.5V178.1C150.1 168.6 142.3 160.8 132.7 160.8ZM131 210.6C126.5 213.6 120.4 215.2 112.8 215.2C109.8 215.2 106.7 215 103.7 214.7L104.1 177C105.7 176.3 107.2 175.8 108.6 175.5C110 175.2 111.5 175 113.1 175C117.3 175 121.2 176 125 177.9C128.8 179.8 131.9 182.4 134.2 185.7C136.5 189 137.7 192.7 137.7 196.8C137.8 202.9 135.5 207.5 131 210.6Z" fill="#F4F4F4"/>
<path d="M185.5 188.4C186.5 187.7 187 186.9 187 185.9C187 185 186.6 184.2 185.9 183.6C185.2 183 184.2 182.7 183 182.7C182.1 182.7 181.3 182.9 180.6 183.3V189.2C181 189.3 181.5 189.4 182.1 189.4C183.3 189.5 184.5 189.1 185.5 188.4ZM187.5 199.1C186.6 198.4 185.5 198.1 184.2 198.1C182.9 198.1 181.7 198.4 180.6 199V206C181.3 206.3 182 206.4 182.7 206.4C184.4 206.4 185.9 206 187 205C188.2 204.1 188.8 203 188.8 201.7C188.8 200.6 188.4 199.7 187.5 199.1ZM200.3 160.8H166.9C157.3 160.8 149.6 168.6 149.6 178.1V211.5C149.6 221.1 157.4 228.8 166.9 228.8H200.3C209.9 228.8 217.6 221 217.6 211.5V178.1C217.6 168.6 209.9 160.8 200.3 160.8ZM194.7 211.9C191.2 213.8 185.7 214.8 178.4 214.8H170.5L170.7 176.9C171.9 176.1 173.9 175.6 176.4 175.3C179 175 181.4 174.9 183.8 174.9C186 174.9 188 175.3 190 176.1C192 176.9 193.6 178.1 194.8 179.5C196 180.9 196.7 182.5 196.7 184.2C196.7 186.3 196.2 188.2 195.1 189.9C194 191.6 192.6 192.6 190.8 193C191 193 191.4 193 191.9 193C193.4 193 194.8 193.4 196 194.3C197.2 195.2 198.2 196.4 198.9 197.9C199.6 199.4 200 201.2 200 203.1C200 207.1 198.2 210 194.7 211.9Z" fill="#F4F4F4"/>
<path d="M164.2 93H130.8C121.2 93 113.5 100.8 113.5 110.3V143.7C113.5 153.3 121.3 161 130.8 161H164.2C173.8 161 181.5 153.2 181.5 143.7V110.4C181.5 100.8 173.8 93 164.2 93ZM128.7 138.6L147 106.9L165.3 138.6H128.7Z" fill="#F4F4F4"/>
</svg>
