<svg width="300" height="322" viewBox="0 0 300 322" fill="none" xmlns="http://www.w3.org/2000/svg">
<path d="M299.5 0H0V321.4H299.5V0Z" fill="#F4F4F4"/>
<path d="M121.1 187.2C119.5 186.5 117.9 186.1 116.2 186.1C115.3 186.1 114.6 186.2 114 186.3V203.9C122.2 204.1 126.4 201 126.4 194.8C126.4 193 125.9 191.5 124.9 190.2C123.9 188.9 122.6 187.9 121.1 187.2ZM132.6 160.7H99.3C89.7 160.7 82 168.4 82 178V211.3C82 220.9 89.7 228.6 99.3 228.6H132.6C142.2 228.6 149.9 220.9 149.9 211.3V178C149.9 168.4 142.2 160.7 132.6 160.7ZM130.9 210.3C126.4 213.3 120.3 214.9 112.7 214.9C109.7 214.9 106.6 214.7 103.7 214.4L104.1 176.7C105.7 176 107.2 175.5 108.6 175.2C110 174.9 111.5 174.7 113.1 174.7C117.3 174.7 121.2 175.7 125 177.6C128.8 179.5 131.8 182.1 134.2 185.4C136.5 188.7 137.7 192.4 137.7 196.4C137.7 202.7 135.4 207.3 130.9 210.3Z" fill="#F84C5A"/>
<path d="M185.3 188.3C186.3 187.6 186.8 186.8 186.8 185.8C186.8 184.9 186.4 184.1 185.7 183.5C185 182.9 184 182.6 182.8 182.6C181.9 182.6 181.1 182.8 180.4 183.2V189.1C180.8 189.2 181.3 189.3 181.9 189.3C183.2 189.3 184.3 188.9 185.3 188.3ZM187.3 198.9C186.4 198.2 185.3 197.9 184 197.9C182.7 197.9 181.5 198.2 180.4 198.8V205.8C181.1 206.1 181.8 206.2 182.5 206.2C184.2 206.2 185.6 205.8 186.8 204.8C188 203.9 188.6 202.8 188.6 201.5C188.6 200.4 188.2 199.5 187.3 198.9ZM200.1 160.7H166.8C157.2 160.7 149.5 168.4 149.5 178V211.3C149.5 220.9 157.2 228.6 166.8 228.6H200.1C209.7 228.6 217.4 220.9 217.4 211.3V178C217.4 168.4 209.6 160.7 200.1 160.7ZM194.5 211.7C191 213.6 185.5 214.6 178.2 214.6H170.3L170.5 176.8C171.7 176 173.7 175.5 176.2 175.2C178.8 174.9 181.2 174.8 183.6 174.8C185.8 174.8 187.8 175.2 189.8 176C191.8 176.8 193.4 178 194.6 179.4C195.8 180.8 196.5 182.4 196.5 184.1C196.5 186.2 196 188.1 194.9 189.8C193.8 191.5 192.4 192.5 190.6 192.9C190.8 192.9 191.2 192.9 191.7 192.9C193.2 192.9 194.6 193.3 195.8 194.2C197 195.1 198 196.3 198.7 197.8C199.4 199.3 199.8 201.1 199.8 203C199.8 206.8 198 209.8 194.5 211.7Z" fill="#59D6EA"/>
<path d="M164.1 93H130.8C121.2 93 113.5 100.8 113.5 110.3V143.6C113.5 153.2 121.2 160.9 130.8 160.9H164.1C173.7 160.9 181.4 153.2 181.4 143.6V110.3C181.4 100.8 173.6 93 164.1 93ZM128.6 138.5L146.9 106.8L165.2 138.5H128.6Z" fill="#FFBD02"/>
</svg>
