<svg width="300" height="277" viewBox="0 0 300 277" fill="none" xmlns="http://www.w3.org/2000/svg">
<path d="M299.3 0H0V277.9H299.3V0Z" fill="#F84C5A"/>
<path d="M122.4 163.4C120.9 162.7 119.4 162.4 117.9 162.4C117.1 162.4 116.4 162.5 115.9 162.6V178.9C123.5 179.1 127.4 176.3 127.4 170.5C127.4 168.9 126.9 167.4 126 166.2C125 165 123.8 164 122.4 163.4ZM133.1 138.8H102.1C93.2 138.8 86 146 86 154.9V185.8C86 194.7 93.2 201.9 102.1 201.9H133C141.9 201.9 149.1 194.7 149.1 185.8V154.9C149.1 146 142 138.8 133.1 138.8ZM131.5 184.9C127.3 187.7 121.7 189.1 114.6 189.1C111.8 189.1 109 188.9 106.2 188.6L106.6 153.7C108.1 153.1 109.5 152.6 110.8 152.3C112.1 152 113.5 151.9 115 151.9C118.9 151.9 122.5 152.8 126.1 154.6C129.6 156.4 132.4 158.8 134.6 161.9C136.7 165 137.8 168.4 137.8 172.1C137.8 177.7 135.7 182 131.5 184.9Z" fill="#F4F4F4"/>
<path d="M182 164.4C182.9 163.8 183.4 163 183.4 162.1C183.4 161.2 183.1 160.5 182.4 160C181.7 159.5 180.8 159.2 179.7 159.2C178.9 159.2 178.1 159.4 177.4 159.7V165.2C177.8 165.3 178.3 165.4 178.8 165.4C180 165.3 181 165 182 164.4ZM183.8 174.2C183 173.6 181.9 173.3 180.7 173.3C179.5 173.3 178.4 173.6 177.4 174.1V180.6C178 180.9 178.7 181 179.4 181C181 181 182.3 180.6 183.4 179.7C184.5 178.9 185.1 177.8 185.1 176.6C185.1 175.6 184.6 174.8 183.8 174.2ZM195.7 138.8H164.7C155.8 138.8 148.6 146 148.6 154.9V185.8C148.6 194.7 155.8 201.9 164.7 201.9H195.7C204.6 201.9 211.8 194.7 211.8 185.8V154.9C211.7 146 204.5 138.8 195.7 138.8ZM190.5 186.1C187.2 187.9 182.2 188.8 175.4 188.8H168.1L168.3 153.7C169.5 153 171.2 152.5 173.6 152.2C176 151.9 178.3 151.8 180.4 151.8C182.4 151.8 184.3 152.2 186.1 153C187.9 153.8 189.4 154.8 190.6 156.1C191.7 157.4 192.3 158.9 192.3 160.5C192.3 162.5 191.8 164.2 190.8 165.8C189.8 167.4 188.5 168.3 186.8 168.6C187 168.6 187.4 168.6 187.8 168.6C189.2 168.6 190.5 169 191.6 169.8C192.7 170.6 193.7 171.7 194.3 173.1C195 174.5 195.3 176.1 195.3 177.9C195.4 181.6 193.7 184.4 190.5 186.1Z" fill="#F4F4F4"/>
<path d="M162.2 76H131.3C122.4 76 115.2 83.2 115.2 92.1V123C115.2 131.9 122.4 139.1 131.3 139.1H162.2C171.1 139.1 178.3 131.9 178.3 123V92.1C178.3 83.2 171.1 76 162.2 76ZM129.3 118.2L146.3 88.8L163.3 118.2H129.3Z" fill="#F4F4F4"/>
</svg>
