<svg width="213" height="200" viewBox="0 0 213 200" fill="none" xmlns="http://www.w3.org/2000/svg">
<path d="M77.6 94.2C76 93.5 74.4 93.1 72.7 93.1C71.8 93.1 71.1 93.2 70.5 93.3V110.9C78.7 111.1 82.9 108 82.9 101.8C82.9 100 82.4 98.5 81.4 97.2C80.4 95.9 79.1 94.9 77.6 94.2ZM89.1 67.7H55.8C46.2 67.7 38.5 75.4 38.5 85V118.3C38.5 127.9 46.2 135.6 55.8 135.6H89.1C98.7 135.6 106.4 127.9 106.4 118.3V85C106.4 75.4 98.7 67.7 89.1 67.7ZM87.4 117.3C82.9 120.3 76.8 121.9 69.2 121.9C66.2 121.9 63.1 121.7 60.2 121.4L60.6 83.7C62.2 83 63.7 82.5 65.1 82.2C66.5 81.9 68 81.7 69.6 81.7C73.8 81.7 77.7 82.7 81.5 84.6C85.3 86.5 88.3 89.1 90.7 92.4C93 95.7 94.2 99.4 94.2 103.4C94.2 109.7 91.9 114.3 87.4 117.3Z" fill="#F84C5A"/>
<path d="M141.8 95.3C142.8 94.6 143.3 93.8 143.3 92.8C143.3 91.9 142.9 91.1 142.2 90.5C141.5 89.9 140.5 89.6 139.3 89.6C138.4 89.6 137.6 89.8 136.9 90.2V96.1C137.3 96.2 137.8 96.3 138.4 96.3C139.7 96.3 140.8 95.9 141.8 95.3ZM143.8 105.9C142.9 105.2 141.8 104.9 140.5 104.9C139.2 104.9 138 105.2 136.9 105.8V112.8C137.6 113.1 138.3 113.2 139 113.2C140.7 113.2 142.1 112.8 143.3 111.8C144.5 110.9 145.1 109.8 145.1 108.5C145.1 107.4 144.7 106.5 143.8 105.9ZM156.6 67.7H123.3C113.7 67.7 106 75.4 106 85V118.3C106 127.9 113.7 135.6 123.3 135.6H156.6C166.2 135.6 173.9 127.9 173.9 118.3V85C173.9 75.4 166.1 67.7 156.6 67.7ZM151 118.7C147.5 120.6 142 121.6 134.7 121.6H126.8L127 83.8C128.2 83 130.2 82.5 132.7 82.2C135.3 81.9 137.7 81.8 140.1 81.8C142.3 81.8 144.3 82.2 146.3 83C148.3 83.8 149.9 85 151.1 86.4C152.3 87.8 153 89.4 153 91.1C153 93.2 152.5 95.1 151.4 96.8C150.3 98.5 148.9 99.5 147.1 99.9C147.3 99.9 147.7 99.9 148.2 99.9C149.7 99.9 151.1 100.3 152.3 101.2C153.5 102.1 154.5 103.3 155.2 104.8C155.9 106.3 156.3 108.1 156.3 110C156.3 113.8 154.5 116.8 151 118.7Z" fill="#59D6EA"/>
<path d="M120.6 0H87.3C77.7 0 70 7.8 70 17.3V50.6C70 60.2 77.7 67.9 87.3 67.9H120.6C130.2 67.9 137.9 60.2 137.9 50.6V17.3C137.9 7.8 130.1 0 120.6 0ZM85.1 45.5L103.4 13.8L121.7 45.5H85.1Z" fill="#FFBD02"/>
<path d="M26.9 189.7C26.9 192 26.6 193.8 26 195.2C25.4 196.6 24.7 197.5 23.7 198C22.7 198.5 21.4 198.8 19.8 198.8C17.4 198.8 15.7 198.2 14.6 196.9C13.5 195.6 13 193.4 12.9 190.1L12.8 167.7H7.6C5 167.7 3.1 167.3 1.9 166.5C0.600002 165.7 0 164.2 0 162.2C0 160.9 0.299999 159.9 0.799999 159.2C1.3 158.5 2.1 158 3.1 157.6C4.1 157.3 5.5 157.1 7.2 157.1H33.2C35.5 157.1 37.1 157.5 38.1 158.3C39.1 159.1 39.6 160.5 39.6 162.5C39.6 163.8 39.3 164.9 38.7 165.6C38.1 166.4 37.3 166.9 36.4 167.2C35.4 167.5 34.2 167.6 32.6 167.6H26.9V189.7Z" fill="#F84C5A"/>
<path d="M73.7 196.8C70.5 198.4 66.9 199.2 62.9 199.2C58.9 199.2 55.3 198.4 52.1 196.8C48.9 195.2 46.4 192.8 44.5 189.6C42.6 186.4 41.6 182.6 41.6 178.3C41.6 171.7 43.6 166.5 47.5 162.6C51.5 158.7 56.6 156.8 62.9 156.8C69.2 156.8 74.3 158.7 78.3 162.6C82.3 166.5 84.3 171.7 84.3 178.3C84.3 182.6 83.3 186.4 81.4 189.6C79.5 192.8 76.9 195.2 73.7 196.8ZM62.9 190.3C64.3 190.3 65.5 189.7 66.5 188.5C67.5 187.3 68.2 185.8 68.6 184C69 182.2 69.2 180.3 69.2 178.3C69.2 176.2 69 174.3 68.5 172.4C68.1 170.6 67.3 169 66.3 167.7C65.3 166.4 64.1 165.8 62.8 165.8C61.5 165.8 60.4 166.4 59.4 167.7C58.4 169 57.7 170.6 57.2 172.4C56.7 174.3 56.5 176.2 56.5 178.2C56.5 180.2 56.7 182.1 57.2 183.9C57.7 185.7 58.4 187.2 59.4 188.4C60.5 189.7 61.6 190.3 62.9 190.3Z" fill="#F84C5A"/>
<path d="M113 189.7C113 193 112.4 195.3 111.2 196.7C110 198.1 108.2 198.8 105.8 198.8C103.4 198.8 101.7 198.2 100.6 196.9C99.5 195.6 98.9 193.4 98.9 190.1L98.8 180.2L89.4 169.3C87.7 167.4 86.8 165.7 86.8 164.3C86.8 162.1 87.7 160.3 89.4 159C91 157.8 92.5 157.2 93.7 157.2C95.4 157.2 97 158 98.4 159.6L105.8 168.2L112 161C114.1 158.5 116.3 157.3 118.6 157.3C120.3 157.3 121.7 157.8 122.7 158.8C124.4 160.5 125.2 162.1 125.2 163.6C125.2 164.5 124.9 165.4 124.3 166.3C123.7 167.3 122.8 168.5 121.6 170L112.8 180.7V189.7H113Z" fill="#F84C5A"/>
<path d="M147.6 157.2C153.9 157.2 159 159 162.8 162.7C166.6 166.3 168.5 171.4 168.5 177.8C168.5 179.9 168.3 181.9 167.9 183.8C167.5 185.7 166.9 187.6 166 189.5C165.1 191.3 164 192.9 162.7 194.3C161.4 195.7 159.7 196.8 157.6 197.6C155.5 198.4 153.2 198.8 150.6 198.8H138.6C136.1 198.8 134.4 198.2 133.3 196.9C132.2 195.6 131.7 193.4 131.7 190.1V164.4C131.7 159.6 134 157.2 138.6 157.2H147.6ZM145.8 190.6C146.9 190.6 147.8 190.5 148.6 190.3C149.4 190.1 150.1 189.7 150.9 189.1C151.6 188.5 152.2 187.7 152.6 186.8C153 185.8 153.4 184.6 153.7 183.1C154 181.6 154.1 179.8 154.1 177.7C154.1 175.4 153.9 173.4 153.5 171.8C153.1 170.2 152.5 169 151.7 168.2C150.9 167.4 150.1 166.8 149.2 166.4C148.3 166.1 147.2 165.9 145.9 165.8V190.6H145.8Z" fill="#FFBD02"/>
<path d="M206.7 177.2C210.5 179.4 212.4 182.4 212.4 186.1C212.4 187.7 212.1 189.3 211.5 190.8C210.9 192.3 209.9 193.6 208.7 194.8C207.5 196 205.8 197 203.8 197.7C201.8 198.4 199.5 198.8 196.9 198.8H182.8C180.3 198.8 178.6 198.2 177.5 196.9C176.4 195.6 175.9 193.4 175.9 190.1V164.4C175.9 163 176.1 161.8 176.6 160.8C177.1 159.7 177.9 158.9 178.9 158.2C180 157.6 181.3 157.2 182.8 157.2H196.7C200.8 157.2 204.1 158.3 206.8 160.5C209.5 162.7 210.8 165.5 210.8 168.9C210.8 170 210.7 171 210.5 171.8C210.3 172.6 210 173.4 209.7 174C209.3 174.6 208.9 175.2 208.4 175.7C208 176.2 207.4 176.7 206.7 177.2ZM198.5 168.9C198.5 167.2 197.8 166 196.5 165.4C195.2 164.8 193 164.5 189.9 164.5V173.8C191.8 173.8 193.4 173.7 194.6 173.4C195.8 173.1 196.7 172.6 197.5 171.9C198.1 171.1 198.5 170.2 198.5 168.9ZM199.3 185.1C199.3 183.8 199 182.7 198.3 182C197.6 181.3 196.6 180.8 195.3 180.4C194 180.1 192.2 179.9 189.9 179.9V190.4C193.1 190.4 195.4 190 197 189.2C198.5 188.6 199.3 187.2 199.3 185.1Z" fill="#FFBD02"/>
</svg>
